<?xml version="1.0" standalone="no"?>
<!DOCTYPE svg PUBLIC "-//W3C//DTD SVG 20010904//EN"
 "http://www.w3.org/TR/2001/REC-SVG-20010904/DTD/svg10.dtd">
<svg version="1.0" xmlns="http://www.w3.org/2000/svg"
 width="500.000000pt" height="500.000000pt" viewBox="0 0 500.000000 500.000000"
 preserveAspectRatio="xMidYMid meet">
<metadata>
Created by potrace 1.14, written by Peter Selinger 2001-2017
</metadata>
<g transform="translate(0.000000,500.000000) scale(0.100000,-0.100000)"
fill="#000000" stroke="none">
<path d="M2392 3528 c-80 -39 -130 -130 -127 -233 l1 -55 -56 0 c-79 0 -96
-15 -105 -92 -4 -35 -8 -74 -10 -88 -2 -14 -7 -54 -10 -90 -4 -36 -9 -68 -12
-72 -8 -14 50 -9 299 27 21 3 50 7 65 9 46 6 126 17 153 22 14 2 46 6 71 9 25
3 55 7 66 9 17 4 84 13 148 21 11 1 23 3 28 4 6 1 1 71 -9 121 -1 8 -3 30 -3
48 -1 51 -30 72 -100 72 l-59 0 -1 66 c-1 105 -46 181 -133 225 -52 26 -149
25 -206 -3z m195 -74 c50 -37 65 -69 72 -143 l7 -71 -166 2 -165 3 0 50 c-1
66 34 135 83 164 46 27 129 25 169 -5z"/>
<path d="M2840 2965 c-80 -18 -532 -116 -555 -121 -53 -10 -210 -47 -214 -50
-2 -2 -7 -21 -11 -43 l-7 -40 41 -7 c23 -3 48 -8 56 -9 8 -1 40 -6 70 -10 30
-4 62 -9 70 -10 8 -2 78 -12 155 -24 77 -12 167 -26 200 -31 33 -6 74 -12 90
-14 26 -4 128 -19 203 -31 19 -3 21 0 18 23 -3 15 -7 54 -11 87 -3 33 -8 74
-10 90 -2 17 -6 57 -10 90 -8 79 -15 115 -23 114 -4 -1 -32 -7 -62 -14z"/>
<path d="M2049 2658 c0 -13 -2 -32 -4 -43 -2 -11 -7 -49 -11 -85 -3 -36 -9
-86 -13 -111 -10 -60 -5 -90 18 -112 17 -18 43 -19 437 -18 231 0 429 0 442 1
40 0 63 35 61 90 -2 27 -6 54 -9 60 -4 6 -110 37 -236 70 -126 32 -326 83
-445 114 -118 31 -221 56 -227 56 -7 0 -12 -10 -13 -22z"/>
<path d="M1455 2110 c-2 -3 -4 -54 -4 -113 l-1 -107 89 0 c48 0 90 3 93 6 3 3
4 13 1 23 -4 14 -14 17 -51 16 -59 -2 -72 2 -72 26 0 16 8 19 56 19 52 0 55 1
52 23 -2 18 -10 22 -43 23 -64 3 -65 3 -65 24 0 18 7 20 60 20 56 0 60 2 60
23 0 22 -3 23 -86 23 -47 0 -87 -2 -89 -6z"/>
<path d="M1700 2093 c0 -20 5 -23 35 -23 l35 0 0 -90 0 -90 30 0 30 0 0 90 0
90 35 0 c31 0 34 3 31 23 -3 21 -7 22 -99 23 -95 0 -97 0 -97 -23z"/>
<path d="M1979 2117 c-1 -1 -2 -53 -3 -114 l-2 -113 28 0 c29 0 32 6 28 61 -1
25 1 26 47 25 l48 -1 0 -40 c0 -38 2 -40 30 -40 l30 0 0 100 c1 55 -1 105 -3
111 -2 6 -14 12 -28 12 -13 0 -25 -6 -25 -12 -1 -6 -2 -22 -4 -36 -1 -14 -3
-30 -3 -37 -1 -7 -19 -11 -44 -10 l-43 2 0 45 c0 41 -2 45 -28 47 -15 1 -28 1
-28 0z"/>
<path d="M2280 2003 l0 -113 90 0 c88 0 90 1 90 23 0 22 -3 24 -60 22 -56 -1
-60 1 -60 22 0 20 6 22 53 25 44 3 52 6 52 23 0 17 -7 20 -50 20 -44 0 -50 3
-53 23 -3 21 0 22 55 22 54 0 59 2 61 23 1 23 -1 23 -88 23 l-90 0 0 -113z"/>
<path d="M2556 2111 c-1 -3 -4 -54 -4 -113 l-2 -108 30 0 c26 0 30 3 30 29 0
49 40 48 64 0 8 -17 22 -25 44 -27 38 -4 39 0 12 39 l-21 28 21 29 c29 40 17
105 -23 118 -29 10 -146 14 -151 5z m122 -50 c8 -4 12 -19 10 -32 -2 -20 -10
-25 -40 -27 -37 -3 -38 -3 -38 32 0 33 3 36 28 36 15 0 33 -4 40 -9z"/>
<path d="M2840 2003 l0 -113 91 0 c88 0 90 1 87 23 -3 19 -9 22 -53 23 -73 2
-74 2 -68 24 4 17 14 20 58 20 48 0 52 2 51 22 -1 20 -7 23 -41 24 -22 1 -46
2 -52 3 -7 1 -13 10 -13 21 0 18 7 20 61 20 57 0 60 1 57 23 -3 21 -8 22 -90
23 l-88 0 0 -113z"/>
<path d="M3180 2106 c-5 -5 -10 -13 -10 -17 0 -4 -15 -40 -34 -81 -52 -114
-53 -118 -17 -118 21 0 32 6 36 20 5 17 15 20 57 20 41 0 51 -3 55 -20 4 -15
14 -20 38 -20 l33 0 -47 112 c-43 101 -50 112 -74 113 -14 1 -31 -3 -37 -9z
m59 -126 c1 -3 -12 -6 -29 -5 -16 0 -30 1 -30 3 0 1 7 19 16 40 l16 37 13 -35
c8 -19 14 -37 14 -40z"/>
<path d="M3423 2113 c-9 -3 -13 -36 -13 -114 l0 -109 79 0 c77 0 79 0 79 25 0
23 -4 25 -49 25 l-49 0 0 88 c0 77 -2 88 -17 89 -10 0 -24 -2 -30 -4z"/>
<path d="M1989 1795 c-1 0 -3 -44 -5 -97 l-3 -98 73 0 c58 0 73 3 73 15 0 12
-13 15 -58 15 -54 0 -58 2 -54 21 6 29 7 29 51 32 25 1 40 7 42 17 2 12 -7 15
-45 13 -45 -2 -48 -1 -48 22 0 14 5 26 10 26 6 1 26 3 45 4 58 4 60 4 55 18
-4 8 -27 12 -70 12 -36 0 -66 0 -66 0z"/>
<path d="M2263 1721 c-54 -116 -55 -121 -35 -121 9 0 22 10 27 22 8 19 17 22
55 21 60 -2 57 0 63 -23 5 -19 37 -29 37 -11 0 8 -47 118 -71 167 -19 38 -40
23 -76 -55z m77 -33 c0 -12 -8 -16 -30 -16 -35 1 -34 -1 -14 46 l15 37 14 -25
c8 -14 14 -33 15 -42z"/>
<path d="M2490 1778 c0 -12 7 -17 28 -15 l27 2 3 -83 c2 -71 5 -83 19 -80 13
2 16 18 17 83 l1 80 28 -1 c25 0 31 5 25 23 -2 4 -36 8 -75 8 -63 1 -73 -1
-73 -17z"/>
<path d="M2732 1780 c3 -11 16 -15 56 -15 28 1 52 -1 52 -3 0 -2 -24 -32 -53
-65 -83 -95 -82 -97 18 -97 69 0 85 3 85 15 0 12 -13 15 -55 15 -30 0 -55 3
-55 6 0 3 25 36 55 72 30 37 54 71 52 77 -2 5 -38 10 -81 10 -64 1 -76 -2 -74
-15z"/>
<path d="M1475 1449 c-4 -5 0 -9 8 -9 9 0 13 -11 12 -35 -1 -19 2 -35 6 -35 5
0 9 16 9 35 0 26 4 35 17 35 23 0 12 8 -20 14 -14 2 -29 0 -32 -5z"/>
<path d="M1580 1455 c-11 -44 -2 -105 10 -70 12 33 47 27 41 -7 0 -5 4 -8 9
-8 6 0 10 18 10 40 0 23 -5 40 -11 40 -6 0 -9 -7 -5 -15 4 -11 -1 -15 -19 -15
-17 0 -25 7 -28 23 -2 12 -5 18 -7 12z"/>
<path d="M1718 1453 c-14 -3 -18 -15 -18 -44 0 -21 5 -39 11 -39 5 0 8 4 5 9
-3 5 0 11 8 14 8 3 17 -1 20 -9 3 -8 11 -14 17 -14 9 0 9 4 0 14 -8 10 -9 16
-1 21 28 18 -5 56 -42 48z m32 -28 c0 -8 -6 -15 -14 -15 -17 0 -28 14 -19 24
12 12 33 6 33 -9z"/>
<path d="M2070 1445 c-8 -9 -6 -17 5 -29 9 -9 21 -16 26 -16 6 0 8 -4 5 -9 -3
-5 -16 -7 -29 -4 -17 5 -19 3 -11 -7 16 -17 48 -9 52 13 3 12 -4 20 -17 24
-12 3 -21 10 -21 15 0 6 9 8 20 5 11 -3 20 -2 20 3 0 14 -39 18 -50 5z"/>
<path d="M2299 1455 c-5 -57 -4 -77 3 -81 4 -3 8 7 8 23 l1 28 22 -27 c30 -37
37 -35 37 12 0 22 -5 40 -10 40 -6 0 -8 -12 -6 -27 l5 -28 -30 35 c-16 19 -29
30 -30 25z"/>
<path d="M2492 1451 c-10 -6 -15 -31 -13 -63 1 -14 9 -18 34 -17 27 1 29 2 9
7 -25 7 -30 29 -6 24 8 -2 14 2 14 8 0 5 -9 10 -20 10 -11 0 -20 5 -20 10 0 6
12 10 27 10 14 0 23 3 19 7 -9 10 -31 12 -44 4z"/>
<path d="M2720 1452 c-23 -3 -25 -6 -22 -42 4 -37 6 -40 35 -40 32 0 32 9 0
15 -10 2 -20 4 -23 5 -3 0 6 7 20 15 25 14 25 14 3 15 -32 0 -28 18 5 22 15 2
23 5 17 8 -5 3 -21 4 -35 2z"/>
<path d="M2814 1452 c-9 -7 -14 -82 -6 -82 3 0 11 8 18 18 12 16 13 16 19 0
11 -29 21 -20 20 18 0 28 -5 39 -21 44 -11 5 -25 5 -30 2z m44 -29 c2 -8 -5
-13 -17 -13 -12 0 -21 6 -21 16 0 18 31 15 38 -3z"/>
<path d="M3275 1444 c-20 -20 -19 -23 11 -34 30 -12 24 -31 -8 -22 -14 3 -19
2 -14 -6 12 -20 53 -14 59 8 3 11 2 20 -2 20 -4 0 -16 7 -27 16 -19 15 -18 15
4 11 24 -6 31 8 7 17 -8 3 -21 -2 -30 -10z"/>
<path d="M3469 1445 c-1 -8 -1 -24 -1 -35 0 -38 2 -40 35 -39 30 2 30 2 5 6
-16 2 -28 11 -28 18 0 8 8 12 20 10 11 -2 20 0 20 6 0 5 -9 9 -20 9 -11 0 -20
5 -20 10 0 6 12 10 27 10 31 0 28 5 -9 14 -21 5 -28 3 -29 -9z"/>
<path d="M1814 1414 c5 -51 16 -55 16 -6 0 23 -4 42 -9 42 -6 0 -8 -16 -7 -36z"/>
<path d="M1880 1410 c0 -37 2 -40 28 -39 25 0 25 1 6 9 -17 7 -21 15 -18 39 2
17 -1 31 -6 31 -6 0 -10 -18 -10 -40z"/>
<path d="M1972 1410 c-1 -39 0 -40 31 -39 24 1 26 3 10 6 -21 4 -30 29 -24 66
0 4 -3 7 -8 7 -5 0 -9 -18 -9 -40z"/>
<path d="M2230 1410 c0 -22 4 -40 8 -40 5 0 8 18 8 40 0 22 -4 40 -8 40 -4 0
-8 -18 -8 -40z"/>
<path d="M2580 1445 c0 -15 30 -75 37 -75 12 0 36 58 30 72 -2 7 -11 -3 -20
-22 l-15 -35 -7 33 c-4 17 -11 32 -16 32 -5 0 -9 -2 -9 -5z"/>
<path d="M2924 1428 c9 -12 16 -30 16 -40 0 -10 5 -18 11 -18 5 0 7 5 4 10 -4
6 0 22 9 35 19 28 20 35 6 35 -5 0 -10 -7 -10 -15 0 -8 -4 -15 -9 -15 -5 0
-11 7 -15 15 -3 8 -10 15 -16 15 -7 0 -5 -9 4 -22z"/>
<path d="M3095 1414 c-19 -46 -19 -47 5 -32 16 10 24 10 40 0 11 -7 20 -10 20
-7 0 12 -35 75 -42 75 -4 0 -15 -16 -23 -36z m35 -5 c0 -5 -4 -9 -10 -9 -5 0
-10 7 -10 16 0 8 5 12 10 9 6 -3 10 -10 10 -16z"/>
<path d="M3203 1410 c-1 -22 1 -40 6 -40 4 0 8 18 9 40 2 22 -1 40 -5 40 -5 0
-9 -18 -10 -40z"/>
<path d="M3372 1410 c0 -38 2 -40 32 -39 23 1 25 3 9 6 -19 4 -23 11 -23 39 0
19 -4 34 -9 34 -6 0 -9 -18 -9 -40z"/>
</g>
</svg>
